# xmcd CD database file
#
# Track frame offsets:
#	150
#	15869
#	34722
#	52896
#	66869
#	83339
#	88154
#	104987
#	120872
#	144506
#	159221
#	183233
#	198366
#
# Disc length: 2941 seconds
#
# Revision: 0
# Processed by: cddbd v1.5.1PL0 Copyright (c) Steve Scherf et al.
# Submitted via: CDex 1.51
#
DISCID=970b7b0d
DTITLE=Samabaia - Mosaico
DYEAR=2002
DGENRE=Jazz
TTITLE0=Considerações a Respeito
TTITLE1=Estrela
TTITLE2=Alto Leblon
TTITLE3=Sudoeste
TTITLE4=Rua 9
TTITLE5=Fantasia sobre Você Mesmo
TTITLE6=Você Mesmo
TTITLE7=Feira da Glória
TTITLE8=Trato é Trato
TTITLE9=Bebop 504
TTITLE10=Nosso Samba
TTITLE11=Olhando pro Sofá
TTITLE12=Negras Mãos
EXTD=YEAR: 2002
EXTT0=
EXTT1=
EXTT2=
EXTT3=
EXTT4=
EXTT5=
EXTT6=
EXTT7=
EXTT8=
EXTT9=
EXTT10=
EXTT11=
EXTT12=
PLAYORDER=
